<svg width="105" height="107" viewBox="0 0 105 107" fill="none" xmlns="http://www.w3.org/2000/svg">
<path fill-rule="evenodd" clip-rule="evenodd" d="M104.989 -61.6635C98.2277 -54.9191 89.8328 -45.6737 87.1742 -35.1802C86.3435 -31.901 86.0723 -28.4986 86.5858 -25.0129C86.0258 -22.5455 85.7885 -20.0106 85.9681 -17.4251C85.9014 -17.1865 85.8376 -16.9472 85.7768 -16.7073C85.3046 -14.8432 85.0132 -12.9393 84.9439 -11.0028C84.625 -10.0971 84.3458 -9.18081 84.1112 -8.25481C84.041 -7.97766 83.9747 -7.69964 83.9126 -7.42076C77.7497 -0.994805 71.0524 7.21779 68.7305 16.3824C67.3989 21.6383 67.5051 27.211 69.9754 32.9354C72.4446 38.6571 77.2662 44.5081 85.3263 50.338C104.103 63.9195 121.574 64.6009 134.978 65.1236C136.223 65.1721 137.433 65.2193 138.605 65.2753C145.525 65.606 151.067 66.2445 154.923 69.1875C158.758 72.115 161.001 77.3906 161.114 87.1987L161.703 87.2126C161.589 77.3553 159.338 71.8574 155.284 68.763C151.25 65.684 145.506 65.052 138.614 64.7227C137.439 64.6666 136.229 64.6193 134.986 64.5706C121.588 64.0468 104.293 63.3705 85.6749 49.904C77.678 44.1198 72.9383 38.3467 70.5202 32.7435C68.1033 27.1429 67.9962 21.69 69.3038 16.5287C71.5105 7.81849 77.7425 -0.0502673 83.6952 -6.34749L83.6897 -6.31736C83.5381 -5.98484 83.3912 -5.65068 83.2495 -5.31491C79.143 -0.207536 75.5128 5.61082 73.9261 11.8738C72.5946 17.1297 72.7007 22.7024 75.1711 28.4267C77.6403 34.1484 82.4618 39.9994 90.5219 45.8293C109.299 59.4109 126.77 60.0922 140.174 60.615C141.419 60.6635 142.628 60.7107 143.801 60.7667C150.721 61.0973 156.262 61.7358 160.118 64.6788C163.954 67.6064 166.196 72.8819 166.309 82.6901L166.898 82.704C166.785 72.8467 164.534 67.3488 160.48 64.2544C156.446 61.1754 150.701 60.5433 143.81 60.2141C142.635 60.158 141.425 60.1106 140.181 60.062C126.783 59.5381 109.489 58.8619 90.8705 45.3954C82.8736 39.6112 78.1339 33.8381 75.7158 28.2349C73.2989 22.6343 73.1918 17.1814 74.4994 12.0201C75.798 6.8944 78.4905 2.06012 81.6997 -2.33401C80.2044 0.396816 78.9997 3.25478 78.2505 6.21189C76.919 11.4678 77.0251 17.0405 79.4955 22.7648C81.9646 28.4865 86.7862 34.3375 94.8463 40.1674C113.623 53.749 131.095 54.4303 144.498 54.9531L144.5 54.9531L144.5 54.9531L144.504 54.9533L144.508 54.9534C145.749 55.0019 146.956 55.0489 148.125 55.1048C155.045 55.4354 160.587 56.0739 164.443 59.0169C168.278 61.9445 170.521 67.22 170.634 77.0282L171.223 77.0421C171.109 67.1848 168.858 61.6869 164.804 58.5925C160.77 55.5135 155.026 54.8814 148.134 54.5522C146.959 54.4961 145.749 54.4487 144.506 54.4001C131.108 53.8762 113.813 53.2 95.1949 39.7335C87.198 33.9493 82.4583 28.1762 80.0402 22.573C77.6233 16.9724 77.5162 11.5195 78.8238 6.3582C79.4997 3.69017 80.5534 1.1011 81.8609 -1.38804C81.7819 -1.10971 81.7069 -0.830471 81.6359 -0.550343C80.3043 4.70553 80.4105 10.2783 82.8808 16.0026C85.35 21.7243 90.1716 27.5753 98.2316 33.4052C117.009 46.9868 134.48 47.6681 147.884 48.1908L147.885 48.1909C149.129 48.2394 150.339 48.2866 151.511 48.3426C158.431 48.6732 163.972 49.3117 167.828 52.2547C171.664 55.1823 173.906 60.4578 174.019 70.2659L174.608 70.2799C174.495 60.4225 172.244 54.9247 168.189 51.8302C164.155 48.7513 158.411 48.1192 151.519 47.7899C150.345 47.7338 149.135 47.6865 147.891 47.6379C134.493 47.114 117.198 46.4378 98.5803 32.9713C90.5834 27.1871 85.8436 21.414 83.4256 15.8107C81.0086 10.2102 80.9016 4.75723 82.2092 -0.404034C82.5216 -1.63723 82.9147 -2.85355 83.3763 -4.05095C82.9984 -0.0611734 83.5346 4.07727 85.3561 8.29815C87.8253 14.0198 92.6469 19.8708 100.707 25.7007C119.484 39.2823 136.955 39.9636 150.359 40.4864C151.604 40.5349 152.813 40.5821 153.986 40.6381C160.906 40.9687 166.447 41.6072 170.303 44.5503C174.139 47.4778 176.381 52.7533 176.494 62.5615L177.083 62.5754C176.97 52.7181 174.719 47.2202 170.665 44.1258C166.631 41.0468 160.886 40.4147 153.995 40.0855C152.82 40.0294 151.61 39.982 150.366 39.9334C136.968 39.4096 119.674 38.7333 101.056 25.2668C93.0587 19.4826 88.3189 13.7095 85.9009 8.10627C83.9304 3.54022 83.4952 -0.927705 84.1103 -5.21945C84.361 -5.60671 84.6168 -5.99103 84.877 -6.37233C84.9724 -6.48578 85.068 -6.59888 85.1638 -6.71159C85.4659 -4.55483 86.0674 -2.36592 87.0218 -0.154374C89.491 5.56731 94.3125 11.4183 102.373 17.2482C121.15 30.8298 138.621 31.5111 152.025 32.0339C153.269 32.0824 154.479 32.1296 155.651 32.1856C162.572 32.5162 168.113 33.1547 171.969 36.0977C175.805 39.0253 178.047 44.3008 178.16 54.109L178.749 54.1229C178.635 44.2656 176.385 38.7677 172.33 35.6733C168.296 32.5943 162.552 31.9622 155.66 31.633C154.486 31.5768 153.276 31.5295 152.032 31.4809C138.634 30.957 121.339 30.2808 102.721 16.8143C94.7243 11.0301 89.9846 5.25697 87.5665 -0.346245C86.5519 -2.69739 85.9443 -5.02251 85.6776 -7.31096C86.378 -8.12082 87.0852 -8.91048 87.7923 -9.67874C87.8605 -9.51162 87.9307 -9.34437 88.003 -9.17699C90.4722 -3.45531 95.2937 2.39571 103.354 8.22558C122.131 21.8072 139.602 22.4885 153.006 23.0112L153.009 23.0113L153.011 23.0114L153.016 23.0116L153.022 23.0118C154.261 23.0602 155.465 23.1072 156.633 23.163C163.553 23.4936 169.094 24.1321 172.95 27.0751C176.786 30.0027 179.028 35.2782 179.141 45.0864L179.73 45.1003C179.617 35.2429 177.366 29.7451 173.312 26.6506C169.278 23.5717 163.533 22.9396 156.641 22.6103C155.467 22.5542 154.257 22.5069 153.013 22.4583C139.615 21.9344 122.32 21.2582 103.702 7.79167C95.7055 2.00747 90.9658 -3.76565 88.5477 -9.36887C88.4356 -9.62873 88.3284 -9.88828 88.2261 -10.1475C89.2764 -11.2761 90.3229 -12.3569 91.3423 -13.3859C94.1134 -9.35581 98.1562 -5.2851 103.77 -1.22464C122.547 12.357 140.018 13.0383 153.422 13.561C154.667 13.6096 155.876 13.6567 157.049 13.7127C163.969 14.0434 169.511 14.6819 173.366 17.6249C177.202 20.5524 179.444 25.828 179.558 35.6361L180.147 35.65C180.033 25.7927 177.782 20.2948 173.728 17.2004C169.694 14.1214 163.949 13.4894 157.058 13.1601C155.883 13.104 154.673 13.0567 153.429 13.0081C140.031 12.4842 122.737 11.8079 104.119 -1.65856C98.4919 -5.72842 94.4776 -9.79279 91.7501 -13.7964L91.9349 -13.9815L92.1761 -14.2225L91.7406 -14.6095C91.6342 -14.5035 91.5275 -14.3968 91.4204 -14.2895C91.3839 -14.3451 91.3477 -14.4008 91.3117 -14.4564C93.0622 -16.4006 94.8281 -18.2161 96.5005 -19.8844L96.065 -20.2714C94.433 -18.6435 92.7059 -16.8698 90.9872 -14.9681C90.7678 -15.3212 90.5583 -15.6738 90.3584 -16.0258C93.3966 -19.9898 96.8004 -23.5687 99.8859 -26.6467L99.4503 -27.0336C96.4236 -24.0143 93.0693 -20.4938 90.0489 -16.5844C89.7236 -17.1866 89.4261 -17.7872 89.1553 -18.3859C92.8712 -24.5081 97.9425 -29.9434 102.361 -34.3511L101.926 -34.7381C97.5984 -30.4215 92.6019 -25.0804 88.8683 -19.0433C88.5354 -19.8344 88.2484 -20.6225 88.0047 -21.4072C91.5731 -29.7571 98.3404 -37.1312 104.027 -42.8037L103.591 -43.1906C98.0577 -37.6707 91.4297 -30.4754 87.7479 -22.2917C87.5051 -23.1904 87.3182 -24.0844 87.1836 -24.9732C87.2306 -25.1771 87.2799 -25.3806 87.3313 -25.5836C89.9511 -35.9244 98.2442 -45.0791 105.008 -51.8263L104.572 -52.2133C98 -45.657 89.8835 -36.7372 86.9937 -26.6049C86.7589 -29.4822 87.0546 -32.299 87.7475 -35.0339C90.3673 -45.3746 98.6604 -54.5293 105.424 -61.2765L104.989 -61.6635ZM85.0371 -7.74686C84.9666 -7.60931 84.897 -7.47146 84.8282 -7.33332C84.9022 -7.43873 84.9764 -7.5439 85.051 -7.64881L85.041 -7.75086L85.0371 -7.74686ZM86.7431 -9.92485C86.9555 -10.1987 87.1695 -10.4707 87.3848 -10.7407C87.3016 -10.9724 87.2221 -11.2039 87.1463 -11.435C86.7639 -10.8284 86.3941 -10.2149 86.0391 -9.5946C86.2087 -9.76488 86.3773 -9.93365 86.5449 -10.1009L86.7431 -9.92485ZM91.0104 -13.8775C90.399 -13.2614 89.7767 -12.6257 89.1487 -11.9715C89.733 -12.6676 90.3244 -13.3497 90.9184 -14.0171L90.9785 -13.9258L91.0104 -13.8775ZM90.5907 -14.5269C90.3796 -14.8621 90.1771 -15.197 89.983 -15.5316C89.1369 -14.4072 88.322 -13.2528 87.5535 -12.0708C87.6347 -11.8048 87.7209 -11.5384 87.8121 -11.2716C88.7222 -12.3925 89.654 -13.4786 90.5907 -14.5269ZM84.883 -8.72306L84.8094 -8.58501C84.8545 -8.75153 84.9011 -8.91774 84.9491 -9.08364C84.9521 -9.0107 84.9555 -8.93772 84.9592 -8.8647L84.883 -8.72306ZM86.9176 -12.1698C86.4309 -11.4141 85.963 -10.6469 85.5179 -9.86909C85.5148 -10.2091 85.5189 -10.5482 85.5299 -10.8863C85.8402 -11.7613 86.1882 -12.6266 86.569 -13.4815C86.6723 -13.0454 86.7883 -12.6081 86.9176 -12.1698ZM89.6683 -16.0872C88.8612 -15.0235 88.0805 -13.9319 87.3391 -12.8145C87.1988 -13.331 87.0771 -13.846 86.9732 -14.3594C87.5265 -15.5232 88.1387 -16.6667 88.798 -17.7878C89.0645 -17.2221 89.3543 -16.6552 89.6683 -16.0872ZM88.5008 -18.4399C88.4733 -18.5023 88.4461 -18.5648 88.4191 -18.6272C88.137 -19.2809 87.8858 -19.9326 87.664 -20.5821C87.2406 -19.5202 86.8705 -18.4431 86.5622 -17.3523C86.6111 -16.6851 86.6883 -16.0146 86.7957 -15.341C87.3212 -16.392 87.8925 -17.4255 88.5008 -18.4399ZM86.3609 -14.4449C86.2784 -14.8681 86.2076 -15.2901 86.1483 -15.7109C85.9432 -14.7852 85.7847 -13.8505 85.6778 -12.9075C85.8937 -13.4238 86.1218 -13.9363 86.3609 -14.4449ZM87.3832 -21.4545C87.0605 -20.689 86.7644 -19.9151 86.4981 -19.1334C86.4994 -20.583 86.6302 -22.0157 86.8728 -23.4287C87.0139 -22.7732 87.1835 -22.1151 87.3832 -21.4545ZM62.8196 19.8258C65.4781 9.33223 73.8731 0.0868259 80.634 -6.65754L81.0696 -6.27056C74.3058 0.476598 66.0127 9.63133 63.3929 19.9721C62.0853 25.1333 62.1924 30.5863 64.6093 36.1868C67.0274 41.7901 71.7671 47.5632 79.764 53.3474C98.382 66.8139 115.677 67.4901 129.075 68.014C130.318 68.0626 131.529 68.1099 132.703 68.166C139.595 68.4953 145.339 69.1274 149.373 72.2064C153.427 75.3008 155.678 80.7986 155.792 90.656L155.203 90.642C155.09 80.8339 152.847 75.5584 149.012 72.6308C145.156 69.6878 139.614 69.0493 132.694 68.7187C131.522 68.6627 130.312 68.6155 129.067 68.5669C115.664 68.0442 98.1925 67.3629 79.4154 53.7813C71.3553 47.9514 66.5337 42.1004 64.0645 36.3787C61.5942 30.6544 61.488 25.0816 62.8196 19.8258ZM74.1984 -4.08031C67.4374 2.66406 59.0425 11.9095 56.384 22.403C55.0524 27.6589 55.1586 33.2316 57.6289 38.9559C60.0981 44.6776 64.9197 50.5287 72.9797 56.3585C91.7568 69.9401 109.228 70.6214 122.632 71.1442L122.632 71.1442C123.877 71.1927 125.086 71.2399 126.259 71.2959C133.179 71.6265 138.72 72.265 142.576 75.208C146.412 78.1356 148.654 83.4111 148.767 93.2193L149.356 93.2332C149.243 83.3759 146.992 77.878 142.937 74.7836C138.904 71.7046 133.159 71.0725 126.267 70.7433C125.093 70.6872 123.883 70.6398 122.639 70.5912C109.241 70.0674 91.9464 69.3911 73.3284 55.9246C65.3315 50.1404 60.5917 44.3673 58.1737 38.7641C55.7567 33.1635 55.6496 27.7106 56.9573 22.5493C59.5771 12.2086 67.8702 3.05383 74.634 -3.69333L74.1984 -4.08031ZM49.5995 24.3579C52.258 13.8644 60.6529 4.61897 67.4139 -2.1254L67.8495 -1.73842C61.0857 5.00874 52.7926 14.1635 50.1728 24.5042C48.8651 29.6655 48.9722 35.1184 51.3892 40.719C53.8072 46.3222 58.547 52.0953 66.5439 57.8795C85.1619 71.346 102.457 72.0223 115.855 72.5461C117.098 72.5948 118.308 72.6421 119.483 72.6982C126.375 73.0274 132.119 73.6595 136.153 76.7385C140.207 79.8329 142.458 85.3308 142.572 95.1881L141.983 95.1742C141.87 85.3661 139.627 80.0905 135.792 77.163C131.936 74.2199 126.394 73.5814 119.474 73.2508C118.302 73.1948 117.092 73.1476 115.847 73.0991C102.443 72.5764 84.9724 71.895 66.1952 58.3134C58.1352 52.4836 53.3136 46.6325 50.8444 40.9109C48.3741 35.1865 48.2679 29.6138 49.5995 24.3579ZM60.4247 -0.557702C53.6637 6.18667 45.2687 15.4321 42.6102 25.9256C41.2786 31.1815 41.3848 36.7542 43.8551 42.4786C46.3243 48.2002 51.1459 54.0513 59.206 59.8811C77.9831 73.4627 95.4542 74.1441 108.858 74.6668C110.103 74.7153 111.312 74.7625 112.485 74.8185C119.405 75.1491 124.947 75.7876 128.802 78.7307C132.638 81.6582 134.88 86.9337 134.994 96.7419L135.583 96.7558C135.469 86.8985 133.218 81.4006 129.164 78.3062C125.13 75.2272 119.385 74.5951 112.494 74.2659C111.319 74.2098 110.109 74.1625 108.865 74.1138C95.4674 73.59 78.1726 72.9137 59.5546 59.4472C51.5577 53.663 46.818 47.8899 44.3999 42.2867C41.983 36.6861 41.8759 31.2332 43.1835 26.0719C45.8033 15.7312 54.0964 6.57644 60.8602 -0.17072L60.4247 -0.557702ZM35.5238 27.3041C38.1823 16.8106 46.5772 7.56518 53.3382 0.820812L53.7737 1.20779C47.01 7.95495 38.7169 17.1097 36.097 27.4504C34.7894 32.6117 34.8965 38.0646 37.3134 43.6652C39.7315 49.2684 44.4713 55.0415 52.4681 60.8257C71.0862 74.2922 88.381 74.9685 101.779 75.4923C103.023 75.541 104.233 75.5883 105.407 75.6444C112.299 75.9737 118.043 76.6057 122.077 79.6847C126.131 82.7791 128.382 88.277 128.496 98.1343L127.907 98.1204C127.794 88.3123 125.551 83.0367 121.716 80.1092C117.86 77.1662 112.319 76.5276 105.398 76.197C104.226 76.141 103.016 76.0938 101.772 76.0453C88.3677 75.5226 70.8966 74.8412 52.1195 61.2597C44.0594 55.4298 39.2379 49.5788 36.7687 43.8571C34.2983 38.1327 34.1922 32.56 35.5238 27.3041ZM46.2366 2.16757C39.4756 8.91193 31.0807 18.1573 28.4222 28.6509C27.0906 33.9067 27.1967 39.4795 29.6671 45.2038C32.1363 50.9255 36.9579 56.7765 45.0179 62.6064C63.795 76.188 81.2662 76.8693 94.6699 77.3921C95.9147 77.4406 97.1244 77.4878 98.2968 77.5438C105.217 77.8744 110.758 78.5129 114.614 81.4559C118.45 84.3835 120.692 89.659 120.805 99.4672L121.394 99.4811C121.281 89.6238 119.03 84.1259 114.976 81.0315C110.942 77.9525 105.197 77.3204 98.3056 76.9911C97.1311 76.935 95.921 76.8877 94.6773 76.8391C81.2794 76.3152 63.9846 75.639 45.3666 62.1725C37.3697 56.3883 32.6299 50.6152 30.2118 45.0119C27.7949 39.4114 27.6878 33.9584 28.9954 28.7972C31.6153 18.4564 39.9084 9.3017 46.6722 2.55455L46.2366 2.16757ZM21.3632 30.084C24.0217 19.5904 32.4167 10.345 39.1777 3.60068L39.6132 3.98766C32.8494 10.7348 24.5563 19.8896 21.9365 30.2303C20.6289 35.3916 20.736 40.8445 23.1529 46.4451C25.571 52.0483 30.3107 57.8214 38.3076 63.6056C56.9256 77.0721 74.2204 77.7483 87.6184 78.2722C88.8621 78.3208 90.0722 78.3682 91.2466 78.4243C98.1384 78.7535 103.883 79.3856 107.917 82.4646C111.971 85.559 114.222 91.0569 114.336 100.914L113.747 100.9C113.633 91.0921 111.391 85.8166 107.555 82.889C103.7 79.946 98.158 79.3075 91.2379 78.9769C90.0655 78.9209 88.8558 78.8737 87.611 78.8252C74.2072 78.3024 56.7361 77.6211 37.959 64.0395C29.8989 58.2096 25.0773 52.3586 22.6081 46.6369C20.1378 40.9126 20.0316 35.3399 21.3632 30.084ZM32.2083 5.20689C25.4473 11.9513 17.0524 21.1967 14.3938 31.6902C13.0623 36.9461 13.1684 42.5188 15.6388 48.2431C18.108 53.9648 22.9295 59.8158 30.9896 65.6457C49.7667 79.2273 67.2378 79.9086 80.6415 80.4314L80.6416 80.4314C81.8864 80.4799 83.0961 80.5271 84.2685 80.5831C91.1886 80.9137 96.7302 81.5522 100.586 84.4953C104.422 87.4228 106.664 92.6983 106.777 102.506L107.366 102.52C107.252 92.6631 105.002 87.1652 100.947 84.0708C96.9134 80.9918 91.169 80.3597 84.2773 80.0305C83.1028 79.9744 81.8927 79.927 80.649 79.8784C67.2511 79.3546 49.9563 78.6783 31.3382 65.2118C23.3413 59.4276 18.6016 53.6545 16.1835 48.0513C13.7666 42.4507 13.6595 36.9978 14.9671 31.8365C17.5869 21.4958 25.8801 12.341 32.6438 5.59387L32.2083 5.20689ZM7.54773 33.5295C10.2063 23.036 18.6012 13.7906 25.3622 7.04624L25.7977 7.43322C19.0339 14.1804 10.7408 23.3351 8.121 33.6759C6.8134 38.8371 6.92048 44.2901 9.33741 49.8906C11.7555 55.4938 16.4952 61.267 24.4921 67.0512C43.1101 80.5177 60.405 81.1939 73.8029 81.7178C75.0466 81.7664 76.2567 81.8137 77.4311 81.8698C84.3229 82.1991 90.0673 82.8312 94.1012 85.9101C98.1554 89.0046 100.406 94.5024 100.52 104.36L99.9311 104.346C99.8179 94.5377 97.5754 89.2622 93.7398 86.3346C89.884 83.3916 84.3425 82.7531 77.4224 82.4225C76.25 82.3664 75.0403 82.3193 73.7955 82.2707L73.7955 82.2707C60.3917 81.748 42.9206 81.0667 24.1435 67.4851C16.0834 61.6552 11.2619 55.8042 8.79266 50.0825C6.32231 44.3582 6.21616 38.7854 7.54773 33.5295ZM18.6635 9.15866C11.9025 15.903 3.50756 25.1484 0.849026 35.642C-0.482547 40.8978 -0.376388 46.4706 2.09395 52.1949C4.56315 57.9166 9.38471 63.7676 17.4448 69.5975C36.2219 83.1791 53.693 83.8604 67.0967 84.3832L67.0968 84.3831L67.0968 84.3831C68.3416 84.4317 69.5513 84.4789 70.7237 84.5349C77.6438 84.8655 83.1853 85.504 87.0411 88.447C90.8767 91.3746 93.1192 96.6501 93.2324 106.458L93.8213 106.472C93.7076 96.6148 91.4567 91.117 87.4025 88.0226C83.3686 84.9436 77.6242 84.3115 70.7324 83.9822C69.558 83.9261 68.3479 83.8788 67.1042 83.8302C53.7063 83.3063 36.4114 82.6301 17.7934 69.1636C9.79652 63.3794 5.05678 57.6063 2.63871 52.003C0.221779 46.4025 0.114698 40.9495 1.4223 35.7883C4.04212 25.4475 12.3352 16.2928 19.099 9.54564L18.6635 9.15866Z" fill="url(#paint0_radial_30_176)" fill-opacity="0.58"/>
<defs>
<radialGradient id="paint0_radial_30_176" cx="0" cy="0" r="1" gradientTransform="matrix(58.4989 57.7994 -62.382 55.2509 78.4537 40.641)" gradientUnits="userSpaceOnUse">
<stop stop-color="white"/>
<stop offset="1" stop-color="#1E1E1E" stop-opacity="0"/>
<stop offset="1" stop-color="#0E0E35" stop-opacity="0"/>
<stop offset="1" stop-color="white" stop-opacity="0"/>
</radialGradient>
</defs>
</svg>
